<mxfile host="Electron" modified="2024-01-16T17:40:01.768Z" agent="Mozilla/5.0 (Windows NT 10.0; Win64; x64) AppleWebKit/537.36 (KHTML, like Gecko) draw.io/22.1.15 Chrome/120.0.6099.109 Electron/28.1.0 Safari/537.36" etag="WMGv6YUoiaswHbKSb0kA" version="22.1.15" type="device">
  <diagram name="Page-1" id="QiFv6TvgqK4XXi64qStH">
    <mxGraphModel dx="2575" dy="2656" grid="1" gridSize="10" guides="1" tooltips="1" connect="1" arrows="1" fold="1" page="1" pageScale="1" pageWidth="827" pageHeight="1169" math="0" shadow="0">
      <root>
        <mxCell id="0" />
        <mxCell id="1" parent="0" />
        <mxCell id="9PeyU508yOqvroqTUooG-54" value="Utilisateur" style="shape=umlActor;verticalLabelPosition=bottom;verticalAlign=top;html=1;" parent="1" vertex="1">
          <mxGeometry x="119" y="-740" width="30" height="60" as="geometry" />
        </mxCell>
        <mxCell id="9PeyU508yOqvroqTUooG-55" value="" style="rounded=0;whiteSpace=wrap;html=1;movable=1;resizable=1;rotatable=1;deletable=1;editable=1;locked=0;connectable=1;" parent="1" vertex="1">
          <mxGeometry x="230" y="-900" width="500" height="480" as="geometry" />
        </mxCell>
        <mxCell id="9PeyU508yOqvroqTUooG-56" value="Page d&#39;accueil" style="text;html=1;strokeColor=none;fillColor=none;align=center;verticalAlign=middle;whiteSpace=wrap;rounded=0;fontSize=14;fontStyle=1" parent="1" vertex="1">
          <mxGeometry x="230" y="-900" width="190" height="30" as="geometry" />
        </mxCell>
        <mxCell id="9PeyU508yOqvroqTUooG-57" value="se connecter&lt;br&gt;" style="ellipse;whiteSpace=wrap;html=1;" parent="1" vertex="1">
          <mxGeometry x="310" y="-820" width="120" height="80" as="geometry" />
        </mxCell>
        <mxCell id="9PeyU508yOqvroqTUooG-58" value="Enfant" style="shape=umlActor;verticalLabelPosition=bottom;verticalAlign=top;html=1;outlineConnect=0;" parent="1" vertex="1">
          <mxGeometry x="64" y="-570" width="30" height="60" as="geometry" />
        </mxCell>
        <mxCell id="9PeyU508yOqvroqTUooG-59" value="Bénévole" style="shape=umlActor;verticalLabelPosition=bottom;verticalAlign=top;html=1;outlineConnect=0;" parent="1" vertex="1">
          <mxGeometry x="163" y="-570" width="30" height="60" as="geometry" />
        </mxCell>
        <mxCell id="9PeyU508yOqvroqTUooG-60" value="Récupérer son MDP&lt;br&gt;" style="ellipse;whiteSpace=wrap;html=1;" parent="1" vertex="1">
          <mxGeometry x="350" y="-710" width="120" height="80" as="geometry" />
        </mxCell>
        <mxCell id="9PeyU508yOqvroqTUooG-61" value="Créer un compte" style="ellipse;whiteSpace=wrap;html=1;" parent="1" vertex="1">
          <mxGeometry x="354" y="-590" width="120" height="80" as="geometry" />
        </mxCell>
        <mxCell id="9PeyU508yOqvroqTUooG-64" value="" style="endArrow=none;html=1;rounded=0;entryX=0;entryY=0.5;entryDx=0;entryDy=0;exitX=1;exitY=0.3333333333333333;exitDx=0;exitDy=0;exitPerimeter=0;" parent="1" source="9PeyU508yOqvroqTUooG-54" target="9PeyU508yOqvroqTUooG-57" edge="1">
          <mxGeometry width="50" height="50" relative="1" as="geometry">
            <mxPoint x="364" y="-545.5" as="sourcePoint" />
            <mxPoint x="414" y="-595.5" as="targetPoint" />
          </mxGeometry>
        </mxCell>
        <mxCell id="9PeyU508yOqvroqTUooG-65" value="" style="endArrow=none;html=1;rounded=0;entryX=0;entryY=0.5;entryDx=0;entryDy=0;exitX=1;exitY=0.3333333333333333;exitDx=0;exitDy=0;exitPerimeter=0;" parent="1" source="9PeyU508yOqvroqTUooG-54" target="9PeyU508yOqvroqTUooG-60" edge="1">
          <mxGeometry width="50" height="50" relative="1" as="geometry">
            <mxPoint x="154" y="-545.5" as="sourcePoint" />
            <mxPoint x="214" y="-570.5" as="targetPoint" />
          </mxGeometry>
        </mxCell>
        <mxCell id="9PeyU508yOqvroqTUooG-66" value="" style="endArrow=none;html=1;rounded=0;entryX=0;entryY=0.5;entryDx=0;entryDy=0;exitX=1;exitY=0.3333333333333333;exitDx=0;exitDy=0;exitPerimeter=0;" parent="1" source="9PeyU508yOqvroqTUooG-54" target="9PeyU508yOqvroqTUooG-61" edge="1">
          <mxGeometry width="50" height="50" relative="1" as="geometry">
            <mxPoint x="154" y="-545.5" as="sourcePoint" />
            <mxPoint x="414" y="-595.5" as="targetPoint" />
          </mxGeometry>
        </mxCell>
        <mxCell id="9PeyU508yOqvroqTUooG-67" value="Utilisateur" style="shape=umlActor;verticalLabelPosition=bottom;verticalAlign=top;html=1;movable=1;resizable=1;rotatable=1;deletable=1;editable=1;locked=0;connectable=1;" parent="1" vertex="1">
          <mxGeometry x="108" y="180" width="30" height="60" as="geometry" />
        </mxCell>
        <mxCell id="9PeyU508yOqvroqTUooG-68" value="" style="rounded=0;whiteSpace=wrap;html=1;movable=1;resizable=1;rotatable=1;deletable=1;editable=1;locked=0;connectable=1;" parent="1" vertex="1">
          <mxGeometry x="230" y="40" width="500" height="540" as="geometry" />
        </mxCell>
        <mxCell id="9PeyU508yOqvroqTUooG-69" value="Page du tableau de bord" style="text;html=1;strokeColor=none;fillColor=none;align=center;verticalAlign=middle;whiteSpace=wrap;rounded=0;movable=1;resizable=1;rotatable=1;deletable=1;editable=1;locked=0;connectable=1;fontSize=14;fontStyle=1" parent="1" vertex="1">
          <mxGeometry x="230" y="40" width="170" height="30" as="geometry" />
        </mxCell>
        <mxCell id="9PeyU508yOqvroqTUooG-70" value="Lancer le chat" style="ellipse;whiteSpace=wrap;html=1;movable=1;resizable=1;rotatable=1;deletable=1;editable=1;locked=0;connectable=1;" parent="1" vertex="1">
          <mxGeometry x="314" y="100" width="120" height="80" as="geometry" />
        </mxCell>
        <mxCell id="9PeyU508yOqvroqTUooG-71" value="Bénévole" style="shape=umlActor;verticalLabelPosition=bottom;verticalAlign=top;html=1;outlineConnect=0;movable=1;resizable=1;rotatable=1;deletable=1;editable=1;locked=0;connectable=1;" parent="1" vertex="1">
          <mxGeometry x="153" y="350" width="30" height="60" as="geometry" />
        </mxCell>
        <mxCell id="9PeyU508yOqvroqTUooG-72" value="Accèder au calendrier" style="ellipse;whiteSpace=wrap;html=1;movable=1;resizable=1;rotatable=1;deletable=1;editable=1;locked=0;connectable=1;" parent="1" vertex="1">
          <mxGeometry x="310" y="220" width="120" height="80" as="geometry" />
        </mxCell>
        <mxCell id="9PeyU508yOqvroqTUooG-73" value="accèder à la page de gestion des tâches" style="ellipse;whiteSpace=wrap;html=1;movable=1;resizable=1;rotatable=1;deletable=1;editable=1;locked=0;connectable=1;" parent="1" vertex="1">
          <mxGeometry x="314" y="340" width="120" height="80" as="geometry" />
        </mxCell>
        <mxCell id="9PeyU508yOqvroqTUooG-76" value="" style="endArrow=none;html=1;rounded=0;entryX=0;entryY=0.5;entryDx=0;entryDy=0;exitX=1;exitY=0.3333333333333333;exitDx=0;exitDy=0;exitPerimeter=0;movable=0;resizable=0;rotatable=0;deletable=0;editable=0;locked=1;connectable=0;" parent="1" source="9PeyU508yOqvroqTUooG-67" target="9PeyU508yOqvroqTUooG-70" edge="1">
          <mxGeometry width="50" height="50" relative="1" as="geometry">
            <mxPoint x="309" y="584.5" as="sourcePoint" />
            <mxPoint x="359" y="534.5" as="targetPoint" />
          </mxGeometry>
        </mxCell>
        <mxCell id="9PeyU508yOqvroqTUooG-77" value="" style="endArrow=none;html=1;rounded=0;entryX=0;entryY=0.5;entryDx=0;entryDy=0;exitX=1;exitY=0.3333333333333333;exitDx=0;exitDy=0;exitPerimeter=0;movable=0;resizable=0;rotatable=0;deletable=0;editable=0;locked=1;connectable=0;" parent="1" source="9PeyU508yOqvroqTUooG-67" target="9PeyU508yOqvroqTUooG-72" edge="1">
          <mxGeometry width="50" height="50" relative="1" as="geometry">
            <mxPoint x="99" y="584.5" as="sourcePoint" />
            <mxPoint x="159" y="559.5" as="targetPoint" />
          </mxGeometry>
        </mxCell>
        <mxCell id="9PeyU508yOqvroqTUooG-78" value="" style="endArrow=none;html=1;rounded=0;entryX=0;entryY=0.5;entryDx=0;entryDy=0;exitX=1;exitY=0.3333333333333333;exitDx=0;exitDy=0;exitPerimeter=0;movable=0;resizable=0;rotatable=0;deletable=0;editable=0;locked=1;connectable=0;" parent="1" source="9PeyU508yOqvroqTUooG-67" target="9PeyU508yOqvroqTUooG-73" edge="1">
          <mxGeometry width="50" height="50" relative="1" as="geometry">
            <mxPoint x="99" y="584.5" as="sourcePoint" />
            <mxPoint x="359" y="534.5" as="targetPoint" />
          </mxGeometry>
        </mxCell>
        <mxCell id="9PeyU508yOqvroqTUooG-79" value="Enfant" style="shape=umlActor;verticalLabelPosition=bottom;verticalAlign=top;html=1;outlineConnect=0;" parent="1" vertex="1">
          <mxGeometry x="54" y="350" width="30" height="60" as="geometry" />
        </mxCell>
        <mxCell id="9PeyU508yOqvroqTUooG-80" value="Accèder au dashboard" style="ellipse;whiteSpace=wrap;html=1;" parent="1" vertex="1">
          <mxGeometry x="560" y="-830" width="120" height="80" as="geometry" />
        </mxCell>
        <mxCell id="9PeyU508yOqvroqTUooG-81" value="" style="endArrow=block;dashed=1;endFill=0;endSize=12;html=1;rounded=0;entryX=0;entryY=0.5;entryDx=0;entryDy=0;exitX=1;exitY=0.5;exitDx=0;exitDy=0;" parent="1" source="9PeyU508yOqvroqTUooG-57" target="9PeyU508yOqvroqTUooG-80" edge="1">
          <mxGeometry width="160" relative="1" as="geometry">
            <mxPoint x="495" y="-740" as="sourcePoint" />
            <mxPoint x="675" y="-637" as="targetPoint" />
            <Array as="points" />
          </mxGeometry>
        </mxCell>
        <mxCell id="9PeyU508yOqvroqTUooG-82" value="&amp;lt;&amp;lt;includes&amp;gt;&amp;gt;" style="edgeLabel;html=1;align=center;verticalAlign=middle;resizable=0;points=[];" parent="9PeyU508yOqvroqTUooG-81" vertex="1" connectable="0">
          <mxGeometry x="-0.0969" y="1" relative="1" as="geometry">
            <mxPoint as="offset" />
          </mxGeometry>
        </mxCell>
        <mxCell id="9PeyU508yOqvroqTUooG-83" value="Se déconnecter" style="ellipse;whiteSpace=wrap;html=1;movable=1;resizable=1;rotatable=1;deletable=1;editable=1;locked=0;connectable=1;" parent="1" vertex="1">
          <mxGeometry x="310" y="450" width="120" height="80" as="geometry" />
        </mxCell>
        <mxCell id="9PeyU508yOqvroqTUooG-85" value="" style="endArrow=none;html=1;rounded=0;entryX=0.014;entryY=0.407;entryDx=0;entryDy=0;exitX=1;exitY=0.3333333333333333;exitDx=0;exitDy=0;exitPerimeter=0;entryPerimeter=0;movable=0;resizable=0;rotatable=0;deletable=0;editable=0;locked=1;connectable=0;" parent="1" source="9PeyU508yOqvroqTUooG-67" target="9PeyU508yOqvroqTUooG-83" edge="1">
          <mxGeometry width="50" height="50" relative="1" as="geometry">
            <mxPoint x="460" y="460" as="sourcePoint" />
            <mxPoint x="640" y="640" as="targetPoint" />
          </mxGeometry>
        </mxCell>
        <mxCell id="9PeyU508yOqvroqTUooG-86" value="Retourner à la page de connexion" style="ellipse;whiteSpace=wrap;html=1;movable=1;resizable=1;rotatable=1;deletable=1;editable=1;locked=0;connectable=1;" parent="1" vertex="1">
          <mxGeometry x="570" y="380" width="120" height="80" as="geometry" />
        </mxCell>
        <mxCell id="9PeyU508yOqvroqTUooG-87" value="" style="endArrow=block;dashed=1;endFill=0;endSize=12;html=1;rounded=0;entryX=0;entryY=0.5;entryDx=0;entryDy=0;exitX=1;exitY=0.5;exitDx=0;exitDy=0;movable=0;resizable=0;rotatable=0;deletable=0;editable=0;locked=1;connectable=0;" parent="1" source="9PeyU508yOqvroqTUooG-83" target="9PeyU508yOqvroqTUooG-86" edge="1">
          <mxGeometry width="160" relative="1" as="geometry">
            <mxPoint x="400" y="640" as="sourcePoint" />
            <mxPoint x="645" y="783" as="targetPoint" />
            <Array as="points" />
          </mxGeometry>
        </mxCell>
        <mxCell id="9PeyU508yOqvroqTUooG-88" value="&amp;lt;&amp;lt;includes&amp;gt;&amp;gt;" style="edgeLabel;html=1;align=center;verticalAlign=middle;resizable=0;points=[];movable=0;rotatable=0;deletable=0;editable=0;locked=1;connectable=0;" parent="9PeyU508yOqvroqTUooG-87" vertex="1" connectable="0">
          <mxGeometry x="-0.0969" y="1" relative="1" as="geometry">
            <mxPoint as="offset" />
          </mxGeometry>
        </mxCell>
        <mxCell id="9PeyU508yOqvroqTUooG-89" value="Utilisateur" style="shape=umlActor;verticalLabelPosition=bottom;verticalAlign=top;html=1;" parent="1" vertex="1">
          <mxGeometry x="104" y="730" width="30" height="60" as="geometry" />
        </mxCell>
        <mxCell id="9PeyU508yOqvroqTUooG-90" value="" style="rounded=0;whiteSpace=wrap;html=1;movable=0;resizable=0;rotatable=0;deletable=0;editable=0;locked=1;connectable=0;" parent="1" vertex="1">
          <mxGeometry x="230" y="650" width="500" height="460" as="geometry" />
        </mxCell>
        <mxCell id="9PeyU508yOqvroqTUooG-91" value="&lt;b&gt;&lt;font style=&quot;font-size: 14px;&quot;&gt;Page de chat&lt;/font&gt;&lt;/b&gt;" style="text;html=1;strokeColor=none;fillColor=none;align=center;verticalAlign=middle;whiteSpace=wrap;rounded=0;" parent="1" vertex="1">
          <mxGeometry x="230" y="650" width="150" height="30" as="geometry" />
        </mxCell>
        <mxCell id="9PeyU508yOqvroqTUooG-92" value="Ajouter un contact" style="ellipse;whiteSpace=wrap;html=1;" parent="1" vertex="1">
          <mxGeometry x="310" y="840" width="120" height="80" as="geometry" />
        </mxCell>
        <mxCell id="9PeyU508yOqvroqTUooG-94" value="Supprimer un contact" style="ellipse;whiteSpace=wrap;html=1;" parent="1" vertex="1">
          <mxGeometry x="310" y="940" width="120" height="80" as="geometry" />
        </mxCell>
        <mxCell id="9PeyU508yOqvroqTUooG-95" value="Afficher historique des conversations" style="ellipse;whiteSpace=wrap;html=1;" parent="1" vertex="1">
          <mxGeometry x="585" y="770" width="120" height="80" as="geometry" />
        </mxCell>
        <mxCell id="9PeyU508yOqvroqTUooG-97" value="" style="endArrow=none;html=1;rounded=0;entryX=0;entryY=0.5;entryDx=0;entryDy=0;exitX=1;exitY=0.3333333333333333;exitDx=0;exitDy=0;exitPerimeter=0;" parent="1" source="9PeyU508yOqvroqTUooG-89" target="9PeyU508yOqvroqTUooG-92" edge="1">
          <mxGeometry width="50" height="50" relative="1" as="geometry">
            <mxPoint x="364" y="1004.5" as="sourcePoint" />
            <mxPoint x="414" y="954.5" as="targetPoint" />
          </mxGeometry>
        </mxCell>
        <mxCell id="9PeyU508yOqvroqTUooG-98" value="" style="endArrow=none;html=1;rounded=0;entryX=0;entryY=0.5;entryDx=0;entryDy=0;exitX=1;exitY=0.3333333333333333;exitDx=0;exitDy=0;exitPerimeter=0;" parent="1" source="9PeyU508yOqvroqTUooG-89" target="9PeyU508yOqvroqTUooG-94" edge="1">
          <mxGeometry width="50" height="50" relative="1" as="geometry">
            <mxPoint x="154" y="1004.5" as="sourcePoint" />
            <mxPoint x="214" y="979.5" as="targetPoint" />
          </mxGeometry>
        </mxCell>
        <mxCell id="9PeyU508yOqvroqTUooG-105" value="Bénévole" style="shape=umlActor;verticalLabelPosition=bottom;verticalAlign=top;html=1;outlineConnect=0;movable=1;resizable=1;rotatable=1;deletable=1;editable=1;locked=0;connectable=1;" parent="1" vertex="1">
          <mxGeometry x="153" y="899" width="30" height="60" as="geometry" />
        </mxCell>
        <mxCell id="9PeyU508yOqvroqTUooG-108" value="Enfant" style="shape=umlActor;verticalLabelPosition=bottom;verticalAlign=top;html=1;outlineConnect=0;" parent="1" vertex="1">
          <mxGeometry x="54" y="899" width="30" height="60" as="geometry" />
        </mxCell>
        <mxCell id="9PeyU508yOqvroqTUooG-109" value="Echanger avec un contact" style="ellipse;whiteSpace=wrap;html=1;" parent="1" vertex="1">
          <mxGeometry x="310" y="740" width="120" height="80" as="geometry" />
        </mxCell>
        <mxCell id="9PeyU508yOqvroqTUooG-110" value="" style="endArrow=none;html=1;rounded=0;entryX=0;entryY=0.5;entryDx=0;entryDy=0;exitX=1;exitY=0.3333333333333333;exitDx=0;exitDy=0;exitPerimeter=0;" parent="1" source="9PeyU508yOqvroqTUooG-89" target="9PeyU508yOqvroqTUooG-109" edge="1">
          <mxGeometry width="50" height="50" relative="1" as="geometry">
            <mxPoint x="159" y="840" as="sourcePoint" />
            <mxPoint x="335" y="840" as="targetPoint" />
          </mxGeometry>
        </mxCell>
        <mxCell id="9PeyU508yOqvroqTUooG-111" value="Utilisateur" style="shape=umlActor;verticalLabelPosition=bottom;verticalAlign=top;html=1;" parent="1" vertex="1">
          <mxGeometry x="119" y="1360" width="30" height="60" as="geometry" />
        </mxCell>
        <mxCell id="9PeyU508yOqvroqTUooG-112" value="" style="rounded=0;whiteSpace=wrap;html=1;movable=1;resizable=1;rotatable=1;deletable=1;editable=1;locked=0;connectable=1;" parent="1" vertex="1">
          <mxGeometry x="230" y="1200" width="500" height="580" as="geometry" />
        </mxCell>
        <mxCell id="9PeyU508yOqvroqTUooG-113" value="Page de Calendrier" style="text;html=1;strokeColor=none;fillColor=none;align=center;verticalAlign=middle;whiteSpace=wrap;rounded=0;fontStyle=1;fontSize=14;" parent="1" vertex="1">
          <mxGeometry x="232" y="1200" width="150" height="30" as="geometry" />
        </mxCell>
        <mxCell id="9PeyU508yOqvroqTUooG-114" value="Supprimer un évenement" style="ellipse;whiteSpace=wrap;html=1;" parent="1" vertex="1">
          <mxGeometry x="565" y="1660" width="120" height="80" as="geometry" />
        </mxCell>
        <mxCell id="9PeyU508yOqvroqTUooG-115" value="Modifier un évenement" style="ellipse;whiteSpace=wrap;html=1;" parent="1" vertex="1">
          <mxGeometry x="275" y="1490" width="120" height="80" as="geometry" />
        </mxCell>
        <mxCell id="9PeyU508yOqvroqTUooG-116" value="Inviter un participant" style="ellipse;whiteSpace=wrap;html=1;" parent="1" vertex="1">
          <mxGeometry x="565" y="1340" width="120" height="80" as="geometry" />
        </mxCell>
        <mxCell id="9PeyU508yOqvroqTUooG-118" value="" style="endArrow=none;html=1;rounded=0;entryX=0;entryY=0.5;entryDx=0;entryDy=0;exitX=1;exitY=0.3333333333333333;exitDx=0;exitDy=0;exitPerimeter=0;" parent="1" source="9PeyU508yOqvroqTUooG-111" target="9PeyU508yOqvroqTUooG-115" edge="1">
          <mxGeometry width="50" height="50" relative="1" as="geometry">
            <mxPoint x="154" y="1554.5" as="sourcePoint" />
            <mxPoint x="214" y="1529.5" as="targetPoint" />
          </mxGeometry>
        </mxCell>
        <mxCell id="9PeyU508yOqvroqTUooG-125" value="Bénévole" style="shape=umlActor;verticalLabelPosition=bottom;verticalAlign=top;html=1;outlineConnect=0;movable=1;resizable=1;rotatable=1;deletable=1;editable=1;locked=0;connectable=1;" parent="1" vertex="1">
          <mxGeometry x="168" y="1529" width="30" height="60" as="geometry" />
        </mxCell>
        <mxCell id="9PeyU508yOqvroqTUooG-126" value="" style="endArrow=classic;html=1;rounded=0;exitX=0.5;exitY=0;exitDx=0;exitDy=0;exitPerimeter=0;" parent="1" edge="1">
          <mxGeometry width="50" height="50" relative="1" as="geometry">
            <mxPoint x="83" y="1529" as="sourcePoint" />
            <mxPoint x="135" y="1450" as="targetPoint" />
            <Array as="points">
              <mxPoint x="83" y="1489" />
              <mxPoint x="135" y="1489" />
            </Array>
          </mxGeometry>
        </mxCell>
        <mxCell id="9PeyU508yOqvroqTUooG-127" value="" style="endArrow=none;html=1;rounded=0;exitX=0.5;exitY=0;exitDx=0;exitDy=0;exitPerimeter=0;movable=1;resizable=1;rotatable=1;deletable=1;editable=1;locked=0;connectable=1;" parent="1" source="9PeyU508yOqvroqTUooG-125" edge="1">
          <mxGeometry width="50" height="50" relative="1" as="geometry">
            <mxPoint x="163" y="1509" as="sourcePoint" />
            <mxPoint x="135" y="1489" as="targetPoint" />
            <Array as="points">
              <mxPoint x="183" y="1489" />
            </Array>
          </mxGeometry>
        </mxCell>
        <mxCell id="9PeyU508yOqvroqTUooG-128" value="Enfant" style="shape=umlActor;verticalLabelPosition=bottom;verticalAlign=top;html=1;outlineConnect=0;" parent="1" vertex="1">
          <mxGeometry x="69" y="1529" width="30" height="60" as="geometry" />
        </mxCell>
        <mxCell id="9PeyU508yOqvroqTUooG-129" value="Ajouter un évenement&amp;nbsp;" style="ellipse;whiteSpace=wrap;html=1;" parent="1" vertex="1">
          <mxGeometry x="295" y="1300" width="120" height="80" as="geometry" />
        </mxCell>
        <mxCell id="9PeyU508yOqvroqTUooG-130" value="" style="endArrow=none;html=1;rounded=0;entryX=0;entryY=0.5;entryDx=0;entryDy=0;exitX=1;exitY=0.3333333333333333;exitDx=0;exitDy=0;exitPerimeter=0;" parent="1" source="9PeyU508yOqvroqTUooG-111" target="9PeyU508yOqvroqTUooG-129" edge="1">
          <mxGeometry width="50" height="50" relative="1" as="geometry">
            <mxPoint x="159" y="1390" as="sourcePoint" />
            <mxPoint x="335" y="1390" as="targetPoint" />
          </mxGeometry>
        </mxCell>
        <mxCell id="9PeyU508yOqvroqTUooG-131" value="Enfant" style="shape=umlActor;verticalLabelPosition=bottom;verticalAlign=top;html=1;" parent="1" vertex="1">
          <mxGeometry x="108" y="1952" width="30" height="60" as="geometry" />
        </mxCell>
        <mxCell id="9PeyU508yOqvroqTUooG-132" value="" style="rounded=0;whiteSpace=wrap;html=1;movable=1;resizable=1;rotatable=1;deletable=1;editable=1;locked=0;connectable=1;" parent="1" vertex="1">
          <mxGeometry x="230" y="1840" width="500" height="450" as="geometry" />
        </mxCell>
        <mxCell id="9PeyU508yOqvroqTUooG-133" value="Page de gestion des tâches" style="text;html=1;strokeColor=none;fillColor=none;align=center;verticalAlign=middle;whiteSpace=wrap;rounded=0;fontSize=14;fontStyle=1" parent="1" vertex="1">
          <mxGeometry x="230" y="1840" width="190" height="30" as="geometry" />
        </mxCell>
        <mxCell id="9PeyU508yOqvroqTUooG-134" value="Archiver une tâche" style="ellipse;whiteSpace=wrap;html=1;" parent="1" vertex="1">
          <mxGeometry x="331" y="2057" width="120" height="80" as="geometry" />
        </mxCell>
        <mxCell id="9PeyU508yOqvroqTUooG-137" value="" style="endArrow=none;html=1;rounded=0;entryX=0;entryY=0.5;entryDx=0;entryDy=0;exitX=1;exitY=0.3333333333333333;exitDx=0;exitDy=0;exitPerimeter=0;" parent="1" source="9PeyU508yOqvroqTUooG-131" target="9PeyU508yOqvroqTUooG-134" edge="1">
          <mxGeometry width="50" height="50" relative="1" as="geometry">
            <mxPoint x="364" y="2216.5" as="sourcePoint" />
            <mxPoint x="414" y="2166.5" as="targetPoint" />
          </mxGeometry>
        </mxCell>
        <mxCell id="9PeyU508yOqvroqTUooG-141" value="" style="endArrow=none;html=1;rounded=0;entryX=0;entryY=0.5;entryDx=0;entryDy=0;exitX=1;exitY=0.3333333333333333;exitDx=0;exitDy=0;exitPerimeter=0;" parent="1" source="9PeyU508yOqvroqTUooG-145" target="9PeyU508yOqvroqTUooG-151" edge="1">
          <mxGeometry width="50" height="50" relative="1" as="geometry">
            <mxPoint x="665" y="1839.44" as="sourcePoint" />
            <mxPoint x="842.6799999999998" y="2141.9999999999995" as="targetPoint" />
          </mxGeometry>
        </mxCell>
        <mxCell id="9PeyU508yOqvroqTUooG-145" value="Bénévole" style="shape=umlActor;verticalLabelPosition=bottom;verticalAlign=top;html=1;outlineConnect=0;movable=1;resizable=1;rotatable=1;deletable=1;editable=1;locked=0;connectable=1;" parent="1" vertex="1">
          <mxGeometry x="108" y="2152" width="30" height="60" as="geometry" />
        </mxCell>
        <mxCell id="9PeyU508yOqvroqTUooG-149" value="Se Créer une tâche&amp;nbsp;" style="ellipse;whiteSpace=wrap;html=1;" parent="1" vertex="1">
          <mxGeometry x="331" y="1952" width="120" height="80" as="geometry" />
        </mxCell>
        <mxCell id="9PeyU508yOqvroqTUooG-150" value="" style="endArrow=none;html=1;rounded=0;entryX=0;entryY=0.5;entryDx=0;entryDy=0;exitX=1;exitY=0.3333333333333333;exitDx=0;exitDy=0;exitPerimeter=0;" parent="1" source="9PeyU508yOqvroqTUooG-131" target="9PeyU508yOqvroqTUooG-149" edge="1">
          <mxGeometry width="50" height="50" relative="1" as="geometry">
            <mxPoint x="159" y="2052" as="sourcePoint" />
            <mxPoint x="335" y="2052" as="targetPoint" />
          </mxGeometry>
        </mxCell>
        <mxCell id="9PeyU508yOqvroqTUooG-151" value="Créer une tâche pour un élève" style="ellipse;whiteSpace=wrap;html=1;" parent="1" vertex="1">
          <mxGeometry x="325" y="2182" width="120" height="80" as="geometry" />
        </mxCell>
        <mxCell id="9PeyU508yOqvroqTUooG-157" value="" style="verticalLabelPosition=bottom;verticalAlign=top;html=1;shape=mxgraph.basic.acute_triangle;dx=0.5;" parent="1" vertex="1">
          <mxGeometry x="113" y="2057" width="20" height="20" as="geometry" />
        </mxCell>
        <mxCell id="9PeyU508yOqvroqTUooG-158" value="" style="endArrow=none;html=1;rounded=0;exitX=0.5;exitY=1;exitDx=0;exitDy=0;exitPerimeter=0;" parent="1" source="9PeyU508yOqvroqTUooG-157" edge="1">
          <mxGeometry relative="1" as="geometry">
            <mxPoint x="58" y="2107" as="sourcePoint" />
            <mxPoint x="123" y="2137" as="targetPoint" />
          </mxGeometry>
        </mxCell>
        <mxCell id="9PeyU508yOqvroqTUooG-159" value="" style="endArrow=classic;html=1;rounded=0;exitX=0.5;exitY=0;exitDx=0;exitDy=0;exitPerimeter=0;" parent="1" edge="1">
          <mxGeometry width="50" height="50" relative="1" as="geometry">
            <mxPoint x="69" y="898" as="sourcePoint" />
            <mxPoint x="121" y="819" as="targetPoint" />
            <Array as="points">
              <mxPoint x="69" y="858" />
              <mxPoint x="121" y="858" />
            </Array>
          </mxGeometry>
        </mxCell>
        <mxCell id="9PeyU508yOqvroqTUooG-160" value="" style="endArrow=none;html=1;rounded=0;exitX=0.5;exitY=0;exitDx=0;exitDy=0;exitPerimeter=0;movable=1;resizable=1;rotatable=1;deletable=1;editable=1;locked=0;connectable=1;" parent="1" edge="1">
          <mxGeometry width="50" height="50" relative="1" as="geometry">
            <mxPoint x="169" y="898" as="sourcePoint" />
            <mxPoint x="121" y="858" as="targetPoint" />
            <Array as="points">
              <mxPoint x="169" y="858" />
            </Array>
          </mxGeometry>
        </mxCell>
        <mxCell id="9PeyU508yOqvroqTUooG-161" value="" style="endArrow=classic;html=1;rounded=0;exitX=0.5;exitY=0;exitDx=0;exitDy=0;exitPerimeter=0;" parent="1" edge="1">
          <mxGeometry width="50" height="50" relative="1" as="geometry">
            <mxPoint x="68" y="350" as="sourcePoint" />
            <mxPoint x="120" y="271" as="targetPoint" />
            <Array as="points">
              <mxPoint x="68" y="310" />
              <mxPoint x="120" y="310" />
            </Array>
          </mxGeometry>
        </mxCell>
        <mxCell id="9PeyU508yOqvroqTUooG-162" value="" style="endArrow=none;html=1;rounded=0;exitX=0.5;exitY=0;exitDx=0;exitDy=0;exitPerimeter=0;movable=1;resizable=1;rotatable=1;deletable=1;editable=1;locked=0;connectable=1;" parent="1" edge="1">
          <mxGeometry width="50" height="50" relative="1" as="geometry">
            <mxPoint x="168" y="350" as="sourcePoint" />
            <mxPoint x="120" y="310" as="targetPoint" />
            <Array as="points">
              <mxPoint x="168" y="310" />
            </Array>
          </mxGeometry>
        </mxCell>
        <mxCell id="9PeyU508yOqvroqTUooG-165" value="" style="endArrow=classic;html=1;rounded=0;exitX=0.5;exitY=0;exitDx=0;exitDy=0;exitPerimeter=0;" parent="1" edge="1">
          <mxGeometry width="50" height="50" relative="1" as="geometry">
            <mxPoint x="80" y="-570" as="sourcePoint" />
            <mxPoint x="132" y="-649" as="targetPoint" />
            <Array as="points">
              <mxPoint x="80" y="-610" />
              <mxPoint x="132" y="-610" />
            </Array>
          </mxGeometry>
        </mxCell>
        <mxCell id="9PeyU508yOqvroqTUooG-166" value="" style="endArrow=none;html=1;rounded=0;exitX=0.5;exitY=0;exitDx=0;exitDy=0;exitPerimeter=0;movable=1;resizable=1;rotatable=1;deletable=1;editable=1;locked=0;connectable=1;" parent="1" edge="1">
          <mxGeometry width="50" height="50" relative="1" as="geometry">
            <mxPoint x="180" y="-570" as="sourcePoint" />
            <mxPoint x="132" y="-610" as="targetPoint" />
            <Array as="points">
              <mxPoint x="180" y="-610" />
            </Array>
          </mxGeometry>
        </mxCell>
        <mxCell id="_uFs0-mTT0XJvpsuuweN-1" value="" style="endArrow=block;dashed=1;endFill=0;endSize=12;html=1;rounded=0;entryX=0;entryY=0.5;entryDx=0;entryDy=0;exitX=1;exitY=0.5;exitDx=0;exitDy=0;" parent="1" source="9PeyU508yOqvroqTUooG-109" target="9PeyU508yOqvroqTUooG-95" edge="1">
          <mxGeometry width="160" relative="1" as="geometry">
            <mxPoint x="455" y="1150" as="sourcePoint" />
            <mxPoint x="595" y="1060" as="targetPoint" />
            <Array as="points" />
          </mxGeometry>
        </mxCell>
        <mxCell id="_uFs0-mTT0XJvpsuuweN-2" value="&amp;lt;&amp;lt;includes&amp;gt;&amp;gt;" style="edgeLabel;html=1;align=center;verticalAlign=middle;resizable=0;points=[];" parent="_uFs0-mTT0XJvpsuuweN-1" vertex="1" connectable="0">
          <mxGeometry x="-0.0969" y="1" relative="1" as="geometry">
            <mxPoint as="offset" />
          </mxGeometry>
        </mxCell>
        <mxCell id="_uFs0-mTT0XJvpsuuweN-3" value="" style="endArrow=block;dashed=1;endFill=0;endSize=12;html=1;rounded=0;entryX=1;entryY=0.5;entryDx=0;entryDy=0;exitX=0.033;exitY=0.325;exitDx=0;exitDy=0;exitPerimeter=0;" parent="1" source="9PeyU508yOqvroqTUooG-116" target="9PeyU508yOqvroqTUooG-129" edge="1">
          <mxGeometry width="160" relative="1" as="geometry">
            <mxPoint x="635" y="1240" as="sourcePoint" />
            <mxPoint x="495" y="1330" as="targetPoint" />
            <Array as="points" />
          </mxGeometry>
        </mxCell>
        <mxCell id="_uFs0-mTT0XJvpsuuweN-6" value="&amp;lt;&amp;lt;Extends&amp;gt;&amp;gt;" style="edgeLabel;html=1;align=center;verticalAlign=middle;resizable=0;points=[];" parent="_uFs0-mTT0XJvpsuuweN-3" vertex="1" connectable="0">
          <mxGeometry x="0.1433" y="-1" relative="1" as="geometry">
            <mxPoint x="5" y="10" as="offset" />
          </mxGeometry>
        </mxCell>
        <mxCell id="_uFs0-mTT0XJvpsuuweN-7" value="" style="endArrow=block;dashed=1;endFill=0;endSize=12;html=1;rounded=0;entryX=1;entryY=0;entryDx=0;entryDy=0;exitX=0.021;exitY=0.639;exitDx=0;exitDy=0;exitPerimeter=0;" parent="1" source="9PeyU508yOqvroqTUooG-116" target="9PeyU508yOqvroqTUooG-115" edge="1">
          <mxGeometry width="160" relative="1" as="geometry">
            <mxPoint x="579" y="1416" as="sourcePoint" />
            <mxPoint x="475" y="1355" as="targetPoint" />
            <Array as="points" />
          </mxGeometry>
        </mxCell>
        <mxCell id="_uFs0-mTT0XJvpsuuweN-8" value="&amp;lt;&amp;lt;Extends&amp;gt;&amp;gt;" style="edgeLabel;html=1;align=center;verticalAlign=middle;resizable=0;points=[];" parent="_uFs0-mTT0XJvpsuuweN-7" vertex="1" connectable="0">
          <mxGeometry x="0.1433" y="-1" relative="1" as="geometry">
            <mxPoint x="17" y="-6" as="offset" />
          </mxGeometry>
        </mxCell>
        <mxCell id="_uFs0-mTT0XJvpsuuweN-9" value="" style="endArrow=block;dashed=1;endFill=0;endSize=12;html=1;rounded=0;entryX=1;entryY=1;entryDx=0;entryDy=0;exitX=0.048;exitY=0.291;exitDx=0;exitDy=0;exitPerimeter=0;" parent="1" source="9PeyU508yOqvroqTUooG-114" target="9PeyU508yOqvroqTUooG-115" edge="1">
          <mxGeometry width="160" relative="1" as="geometry">
            <mxPoint x="578" y="1441" as="sourcePoint" />
            <mxPoint x="475" y="1487" as="targetPoint" />
            <Array as="points" />
          </mxGeometry>
        </mxCell>
        <mxCell id="_uFs0-mTT0XJvpsuuweN-10" value="&amp;lt;&amp;lt;Extends&amp;gt;&amp;gt;" style="edgeLabel;html=1;align=center;verticalAlign=middle;resizable=0;points=[];" parent="_uFs0-mTT0XJvpsuuweN-9" vertex="1" connectable="0">
          <mxGeometry x="0.1433" y="-1" relative="1" as="geometry">
            <mxPoint x="9" y="9" as="offset" />
          </mxGeometry>
        </mxCell>
        <mxCell id="_ykLKw6Dir09og590W0I-1" value="Supprimer un participant" style="ellipse;whiteSpace=wrap;html=1;" parent="1" vertex="1">
          <mxGeometry x="565" y="1500" width="120" height="80" as="geometry" />
        </mxCell>
        <mxCell id="_ykLKw6Dir09og590W0I-2" value="" style="endArrow=block;dashed=1;endFill=0;endSize=12;html=1;rounded=0;entryX=1;entryY=0.588;entryDx=0;entryDy=0;entryPerimeter=0;" parent="1" target="9PeyU508yOqvroqTUooG-115" edge="1">
          <mxGeometry width="160" relative="1" as="geometry">
            <mxPoint x="565" y="1540" as="sourcePoint" />
            <mxPoint x="452" y="1543" as="targetPoint" />
            <Array as="points" />
          </mxGeometry>
        </mxCell>
        <mxCell id="_ykLKw6Dir09og590W0I-3" value="&amp;lt;&amp;lt;Extends&amp;gt;&amp;gt;" style="edgeLabel;html=1;align=center;verticalAlign=middle;resizable=0;points=[];" parent="_ykLKw6Dir09og590W0I-2" vertex="1" connectable="0">
          <mxGeometry x="0.1433" y="-1" relative="1" as="geometry">
            <mxPoint x="9" y="9" as="offset" />
          </mxGeometry>
        </mxCell>
        <mxCell id="Dhb-K1dHiSWJpTsukvNL-2" value="Diagrammes de cas d&#39;usage&lt;br style=&quot;font-size: 27px;&quot;&gt;Projet Learn@Home" style="text;strokeColor=none;fillColor=none;html=1;fontSize=27;fontStyle=1;verticalAlign=middle;align=center;" vertex="1" parent="1">
          <mxGeometry x="395" y="-1110" width="100" height="40" as="geometry" />
        </mxCell>
      </root>
    </mxGraphModel>
  </diagram>
</mxfile>
